<?xml version="1.0" encoding="UTF-8" standalone="no"?>
<svg
   xmlns:dc="http://purl.org/dc/elements/1.1/"
   xmlns:cc="http://creativecommons.org/ns#"
   xmlns:rdf="http://www.w3.org/1999/02/22-rdf-syntax-ns#"
   xmlns:svg="http://www.w3.org/2000/svg"
   xmlns="http://www.w3.org/2000/svg"
   id="svg3983"
   version="1.1"
   viewBox="0 0 3.9915495 3.9915366"
   height="3.9915366mm"
   width="3.9915495mm">
  <defs
     id="defs3977" />
  <metadata
     id="metadata3980">
    <rdf:RDF>
      <cc:Work
         rdf:about="">
        <dc:format>image/svg+xml</dc:format>
        <dc:type
           rdf:resource="http://purl.org/dc/dcmitype/StillImage" />
        <dc:title></dc:title>
      </cc:Work>
    </rdf:RDF>
  </metadata>
  <g
     transform="translate(-130.8207,-110.72522)"
     id="layer1">
    <path
       style="opacity:0.5;fill:#4d8af0;stroke-width:0.26458332"
       d="m 134.45956,112.75535 a 1.0795,1.0795 0 0 1 -0.6006,-1.30439 0.52916667,0.52916667 0 0 0 0.0238,-0.11906 v 0 a 0.52916667,0.52916667 0 0 0 -0.97102,-0.35984 v 0 a 0.52916667,0.52916667 0 0 0 -0.0609,0.10584 1.0795,1.0795 0 0 1 -1.3044,0.6006 0.52916667,0.52916667 0 0 0 -0.11906,-0.0238 v 0 a 0.52916667,0.52916667 0 0 0 -0.35984,0.97102 v 0 a 0.52916667,0.52916667 0 0 0 0.10584,0.0609 1.0795,1.0795 0 0 1 0.6006,1.3044 0.52916667,0.52916667 0 0 0 -0.0238,0.11906 v 0 a 0.52916667,0.52916667 0 0 0 0.97102,0.35983 v 0 a 0.52916667,0.52916667 0 0 0 0.0609,-0.10583 1.0795,1.0795 0 0 1 1.3044,-0.6006 0.52916667,0.52916667 0 0 0 0.11906,0.0238 v 0 a 0.52916667,0.52916667 0 0 0 0.35984,-0.97102 v 0 a 0.52916667,0.52916667 0 0 0 -0.10584,-0.0609 z"
       id="path3760" />
  </g>
</svg>
